<mxfile host="app.diagrams.net" agent="Mozilla/5.0 (Macintosh; Intel Mac OS X 10_15_7) AppleWebKit/537.36 (KHTML, like Gecko) Chrome/135.0.0.0 Safari/537.36" version="27.0.9">
  <diagram name="Logical Framework AHS" id="-L74Rr-t5S8kTxLWxk_D">
    <mxGraphModel dx="3509" dy="654" grid="1" gridSize="10" guides="1" tooltips="1" connect="1" arrows="1" fold="1" page="1" pageScale="1" pageWidth="1169" pageHeight="827" math="0" shadow="0">
      <root>
        <mxCell id="oHDgF6Zf1U5vlmXcFzb0-0" />
        <mxCell id="oHDgF6Zf1U5vlmXcFzb0-1" parent="oHDgF6Zf1U5vlmXcFzb0-0" />
        <mxCell id="oHDgF6Zf1U5vlmXcFzb0-2" value="&lt;b&gt;LOCAL LEARNING HEALTH SYSTEM&lt;/b&gt;&amp;nbsp;&lt;div&gt;AT AHS - NETWORK CLINIC&lt;/div&gt;&lt;div&gt;&lt;br&gt;&lt;/div&gt;&lt;div&gt;&lt;br&gt;&lt;/div&gt;&lt;div&gt;&lt;br&gt;&lt;/div&gt;&lt;div&gt;&lt;br&gt;&lt;/div&gt;&lt;div&gt;&lt;br&gt;&lt;/div&gt;&lt;div&gt;&lt;br&gt;&lt;/div&gt;&lt;div&gt;&lt;br&gt;&lt;/div&gt;&lt;div&gt;&lt;br&gt;&lt;/div&gt;&lt;div&gt;&lt;br&gt;&lt;/div&gt;&lt;div&gt;&lt;br&gt;&lt;/div&gt;&lt;div&gt;&lt;br&gt;&lt;/div&gt;" style="rounded=0;whiteSpace=wrap;html=1;fillColor=#66FFFF;" parent="oHDgF6Zf1U5vlmXcFzb0-1" vertex="1">
          <mxGeometry x="-250" y="90" width="250" height="460" as="geometry" />
        </mxCell>
        <mxCell id="oHDgF6Zf1U5vlmXcFzb0-3" style="edgeStyle=orthogonalEdgeStyle;rounded=0;orthogonalLoop=1;jettySize=auto;html=1;entryX=0.5;entryY=0;entryDx=0;entryDy=0;" parent="oHDgF6Zf1U5vlmXcFzb0-1" source="oHDgF6Zf1U5vlmXcFzb0-4" target="oHDgF6Zf1U5vlmXcFzb0-10" edge="1">
          <mxGeometry relative="1" as="geometry" />
        </mxCell>
        <mxCell id="oHDgF6Zf1U5vlmXcFzb0-4" value="&lt;p style=&quot;margin: 0px ; margin-top: 4px ; text-align: center ; text-decoration: underline&quot;&gt;&lt;strong&gt;Outcome 1 (O1)&lt;br&gt;&lt;/strong&gt;&lt;/p&gt;&lt;hr&gt;&lt;span style=&quot;text-align: left; text-indent: 0in; background-color: initial;&quot;&gt;Improvement&amp;nbsp;&lt;/span&gt;&lt;span style=&quot;text-align: left; text-indent: 0in; background-color: initial;&quot;&gt;of Health Care&amp;nbsp;&lt;/span&gt;&lt;span style=&quot;text-align: left; text-indent: 0in; background-color: initial;&quot;&gt;&lt;br&gt;&lt;/span&gt;&lt;p style=&quot;line-height: 170%; margin-top: 0pt; margin-bottom: 0pt; text-indent: 0in; direction: ltr; word-break: normal;&quot;&gt;&lt;span style=&quot;text-indent: 0in; background-color: initial;&quot;&gt;Delivery Quality and Equity&lt;/span&gt;&lt;br&gt;&lt;/p&gt;&lt;br&gt;&lt;br&gt;&lt;p style=&quot;margin: 0px 0px 0px 8px; font-size: 11px;&quot;&gt;&lt;br&gt;&lt;/p&gt;&lt;p style=&quot;margin: 0px ; margin-left: 8px&quot;&gt;&lt;/p&gt;" style="verticalAlign=middle;align=center;overflow=fill;fontSize=12;fontFamily=Helvetica;html=1;rounded=1;fontStyle=1;strokeWidth=1;fillColor=#E6FFCC" parent="oHDgF6Zf1U5vlmXcFzb0-1" vertex="1">
          <mxGeometry x="-244" y="93" width="240" height="91" as="geometry" />
        </mxCell>
        <mxCell id="oHDgF6Zf1U5vlmXcFzb0-5" style="edgeStyle=orthogonalEdgeStyle;rounded=0;orthogonalLoop=1;jettySize=auto;html=1;entryX=0;entryY=0.5;entryDx=0;entryDy=0;" parent="oHDgF6Zf1U5vlmXcFzb0-1" source="oHDgF6Zf1U5vlmXcFzb0-6" target="oHDgF6Zf1U5vlmXcFzb0-10" edge="1">
          <mxGeometry relative="1" as="geometry">
            <mxPoint x="145.5999999999999" y="374" as="targetPoint" />
          </mxGeometry>
        </mxCell>
        <mxCell id="oHDgF6Zf1U5vlmXcFzb0-6" value="&lt;p style=&quot;margin: 0px ; margin-top: 4px ; text-align: center ; text-decoration: underline&quot;&gt;&lt;strong&gt;Outcome 2 (O2)&lt;br&gt;&lt;/strong&gt;&lt;/p&gt;&lt;hr&gt;&lt;p style=&quot;margin: 0px ; margin-left: 8px&quot;&gt;Improvement of Higher Education&amp;nbsp;&lt;/p&gt;&lt;p style=&quot;margin: 0px ; margin-left: 8px&quot;&gt;Innovation Utilization, Evidence-based&amp;nbsp;&lt;/p&gt;&lt;p style=&quot;margin: 0px ; margin-left: 8px&quot;&gt;Health Care &amp;amp; Public Health Policy&amp;nbsp;&lt;/p&gt;" style="verticalAlign=middle;align=center;overflow=fill;fontSize=12;fontFamily=Helvetica;html=1;rounded=1;fontStyle=1;strokeWidth=1;fillColor=#E6FFCC" parent="oHDgF6Zf1U5vlmXcFzb0-1" vertex="1">
          <mxGeometry x="-244" y="283" width="240" height="91" as="geometry" />
        </mxCell>
        <mxCell id="oHDgF6Zf1U5vlmXcFzb0-7" style="edgeStyle=orthogonalEdgeStyle;rounded=0;orthogonalLoop=1;jettySize=auto;html=1;entryX=0.5;entryY=1;entryDx=0;entryDy=0;" parent="oHDgF6Zf1U5vlmXcFzb0-1" source="oHDgF6Zf1U5vlmXcFzb0-8" target="oHDgF6Zf1U5vlmXcFzb0-10" edge="1">
          <mxGeometry relative="1" as="geometry">
            <mxPoint x="356" y="398" as="targetPoint" />
          </mxGeometry>
        </mxCell>
        <mxCell id="oHDgF6Zf1U5vlmXcFzb0-8" value="&lt;p style=&quot;margin: 0px ; margin-top: 4px ; text-align: center ; text-decoration: underline&quot;&gt;&lt;strong&gt;Outcome 3 (O3)&lt;/strong&gt;&lt;/p&gt;&lt;hr&gt;&lt;p style=&quot;margin: 0px ; margin-left: 8px&quot;&gt;Improvement of Health Literacy and&lt;/p&gt;&lt;p style=&quot;margin: 0px ; margin-left: 8px&quot;&gt;Community Engagement&lt;/p&gt;&lt;p style=&quot;margin: 0px ; margin-left: 8px&quot;&gt;&lt;br&gt;&lt;/p&gt;" style="verticalAlign=middle;align=center;overflow=fill;fontSize=12;fontFamily=Helvetica;html=1;rounded=1;fontStyle=1;strokeWidth=1;fillColor=#E6FFCC" parent="oHDgF6Zf1U5vlmXcFzb0-1" vertex="1">
          <mxGeometry x="-244" y="463" width="240" height="80" as="geometry" />
        </mxCell>
        <mxCell id="oHDgF6Zf1U5vlmXcFzb0-9" value="&lt;b&gt;&lt;font face=&quot;Arial&quot; style=&quot;font-size: 18px;&quot;&gt;ULTIMATE OUTCOMES&lt;/font&gt;&lt;/b&gt;" style="rounded=0;whiteSpace=wrap;html=1;fillColor=#d5e8d4;strokeColor=#82b366;" parent="oHDgF6Zf1U5vlmXcFzb0-1" vertex="1">
          <mxGeometry x="-244" y="40" width="230" height="40" as="geometry" />
        </mxCell>
        <mxCell id="oHDgF6Zf1U5vlmXcFzb0-10" value="Population Health Status and Wellbeing&#xa;(PEOPLE)" style="shape=process;whiteSpace=wrap;align=center;verticalAlign=middle;size=0.0475;fontStyle=3;strokeWidth=1;fillColor=#FFCCCC" parent="oHDgF6Zf1U5vlmXcFzb0-1" vertex="1">
          <mxGeometry x="8" y="303.5" width="172" height="50" as="geometry" />
        </mxCell>
        <mxCell id="oHDgF6Zf1U5vlmXcFzb0-11" value="&lt;span style=&quot;font-size: 18px;&quot;&gt;&lt;b&gt;&lt;font face=&quot;Arial&quot;&gt;INTERMEDIATE OUTCOMES&lt;/font&gt;&lt;/b&gt;&lt;/span&gt;" style="rounded=0;whiteSpace=wrap;html=1;fillColor=#FFFF99;strokeColor=#B09500;fontColor=#000000;" parent="oHDgF6Zf1U5vlmXcFzb0-1" vertex="1">
          <mxGeometry x="-820" y="40" width="571" height="40" as="geometry" />
        </mxCell>
        <mxCell id="oHDgF6Zf1U5vlmXcFzb0-12" style="edgeStyle=orthogonalEdgeStyle;rounded=0;orthogonalLoop=1;jettySize=auto;html=1;entryX=0.5;entryY=0;entryDx=0;entryDy=0;" parent="oHDgF6Zf1U5vlmXcFzb0-1" source="oHDgF6Zf1U5vlmXcFzb0-13" target="oHDgF6Zf1U5vlmXcFzb0-42" edge="1">
          <mxGeometry relative="1" as="geometry" />
        </mxCell>
        <mxCell id="oHDgF6Zf1U5vlmXcFzb0-13" value="Health Professional Distribution" style="whiteSpace=wrap;align=center;verticalAlign=middle;fontStyle=1;strokeWidth=1;fillColor=#FFFFCC" parent="oHDgF6Zf1U5vlmXcFzb0-1" vertex="1">
          <mxGeometry x="-500" y="90" width="190" height="40" as="geometry" />
        </mxCell>
        <mxCell id="oHDgF6Zf1U5vlmXcFzb0-14" value="Increase of Education, Research &amp; Service Capacity" style="whiteSpace=wrap;align=center;verticalAlign=middle;fontStyle=1;strokeWidth=1;fillColor=#FFFFCC" parent="oHDgF6Zf1U5vlmXcFzb0-1" vertex="1">
          <mxGeometry x="-612" y="212" width="200" height="40" as="geometry" />
        </mxCell>
        <mxCell id="oHDgF6Zf1U5vlmXcFzb0-15" style="edgeStyle=orthogonalEdgeStyle;rounded=0;orthogonalLoop=1;jettySize=auto;html=1;entryX=1;entryY=0.5;entryDx=0;entryDy=0;" parent="oHDgF6Zf1U5vlmXcFzb0-1" source="oHDgF6Zf1U5vlmXcFzb0-16" target="oHDgF6Zf1U5vlmXcFzb0-14" edge="1">
          <mxGeometry relative="1" as="geometry">
            <mxPoint x="-328" y="243" as="targetPoint" />
            <Array as="points">
              <mxPoint x="-328" y="232" />
            </Array>
            <mxPoint x="-242.95652173913004" y="509.94000000000005" as="sourcePoint" />
          </mxGeometry>
        </mxCell>
        <mxCell id="oHDgF6Zf1U5vlmXcFzb0-16" value="TRANSFORMATIVE LEARNING" style="whiteSpace=wrap;align=center;verticalAlign=middle;fontStyle=1;strokeWidth=1;fillColor=#FFFFCC;fontSize=12;" parent="oHDgF6Zf1U5vlmXcFzb0-1" vertex="1">
          <mxGeometry x="-513" y="454.00000000000006" width="220" height="42.06" as="geometry" />
        </mxCell>
        <mxCell id="oHDgF6Zf1U5vlmXcFzb0-17" value="TRANSLATIONAL RESEARCH" style="whiteSpace=wrap;align=center;verticalAlign=middle;fontStyle=1;strokeWidth=1;fillColor=#FFFFCC;fontSize=12;" parent="oHDgF6Zf1U5vlmXcFzb0-1" vertex="1">
          <mxGeometry x="-584" y="333" width="210" height="40" as="geometry" />
        </mxCell>
        <mxCell id="oHDgF6Zf1U5vlmXcFzb0-18" style="edgeStyle=orthogonalEdgeStyle;rounded=0;orthogonalLoop=1;jettySize=auto;html=1;exitX=1;exitY=0.5;exitDx=0;exitDy=0;" parent="oHDgF6Zf1U5vlmXcFzb0-1" target="oHDgF6Zf1U5vlmXcFzb0-14" edge="1">
          <mxGeometry relative="1" as="geometry">
            <mxPoint x="-425" y="280" as="sourcePoint" />
            <mxPoint x="-366" y="247" as="targetPoint" />
            <Array as="points">
              <mxPoint x="-363" y="280" />
            </Array>
          </mxGeometry>
        </mxCell>
        <mxCell id="oHDgF6Zf1U5vlmXcFzb0-19" value="Infrastructure Advancement for Research, Education &amp; Community ServicesÂ " style="whiteSpace=wrap;align=center;verticalAlign=middle;fontStyle=1;strokeWidth=1;fillColor=#FFFFCC" parent="oHDgF6Zf1U5vlmXcFzb0-1" vertex="1">
          <mxGeometry x="-718" y="266" width="290" height="40" as="geometry" />
        </mxCell>
        <mxCell id="oHDgF6Zf1U5vlmXcFzb0-20" style="edgeStyle=orthogonalEdgeStyle;rounded=0;orthogonalLoop=1;jettySize=auto;html=1;entryX=0;entryY=0.5;entryDx=0;entryDy=0;" parent="oHDgF6Zf1U5vlmXcFzb0-1" source="oHDgF6Zf1U5vlmXcFzb0-22" target="oHDgF6Zf1U5vlmXcFzb0-17" edge="1">
          <mxGeometry relative="1" as="geometry" />
        </mxCell>
        <mxCell id="oHDgF6Zf1U5vlmXcFzb0-21" style="edgeStyle=orthogonalEdgeStyle;rounded=0;orthogonalLoop=1;jettySize=auto;html=1;" parent="oHDgF6Zf1U5vlmXcFzb0-1" edge="1">
          <mxGeometry relative="1" as="geometry">
            <mxPoint x="-742" y="333" as="sourcePoint" />
            <mxPoint x="-427.5" y="183" as="targetPoint" />
            <Array as="points">
              <mxPoint x="-741.5" y="200" />
              <mxPoint x="-427.5" y="200" />
            </Array>
          </mxGeometry>
        </mxCell>
        <mxCell id="oHDgF6Zf1U5vlmXcFzb0-22" value="Faculty Development&#xa;at ACADEMIC CLUB" style="whiteSpace=wrap;align=center;verticalAlign=middle;fontStyle=3;strokeWidth=1;fillColor=#FFFFCC" parent="oHDgF6Zf1U5vlmXcFzb0-1" vertex="1">
          <mxGeometry x="-810" y="333" width="181" height="40" as="geometry" />
        </mxCell>
        <mxCell id="oHDgF6Zf1U5vlmXcFzb0-23" style="edgeStyle=orthogonalEdgeStyle;rounded=0;orthogonalLoop=1;jettySize=auto;html=1;entryX=0;entryY=0.5;entryDx=0;entryDy=0;" parent="oHDgF6Zf1U5vlmXcFzb0-1" source="oHDgF6Zf1U5vlmXcFzb0-24" target="oHDgF6Zf1U5vlmXcFzb0-13" edge="1">
          <mxGeometry relative="1" as="geometry" />
        </mxCell>
        <mxCell id="oHDgF6Zf1U5vlmXcFzb0-24" value="Increase of Graduates Quality &amp; Numbers" style="whiteSpace=wrap;align=center;verticalAlign=middle;fontStyle=1;strokeWidth=1;fillColor=#FFFFCC" parent="oHDgF6Zf1U5vlmXcFzb0-1" vertex="1">
          <mxGeometry x="-810" y="130" width="265" height="40" as="geometry" />
        </mxCell>
        <mxCell id="oHDgF6Zf1U5vlmXcFzb0-25" style="edgeStyle=orthogonalEdgeStyle;rounded=0;orthogonalLoop=1;jettySize=auto;html=1;entryX=0;entryY=0.75;entryDx=0;entryDy=0;" parent="oHDgF6Zf1U5vlmXcFzb0-1" target="oHDgF6Zf1U5vlmXcFzb0-16" edge="1">
          <mxGeometry relative="1" as="geometry">
            <mxPoint x="-483" y="485.5450000000001" as="targetPoint" />
            <Array as="points">
              <mxPoint x="-610" y="486" />
            </Array>
            <mxPoint x="-610" y="443" as="sourcePoint" />
          </mxGeometry>
        </mxCell>
        <mxCell id="oHDgF6Zf1U5vlmXcFzb0-26" value="&lt;b&gt;&lt;font face=&quot;Arial&quot; style=&quot;font-size: 18px;&quot;&gt;IMPACT&lt;/font&gt;&lt;/b&gt;" style="rounded=0;whiteSpace=wrap;html=1;fillColor=#f8cecc;strokeColor=#b85450;" parent="oHDgF6Zf1U5vlmXcFzb0-1" vertex="1">
          <mxGeometry x="8" y="40" width="152" height="40" as="geometry" />
        </mxCell>
        <mxCell id="oHDgF6Zf1U5vlmXcFzb0-27" value="&lt;b&gt;&lt;font face=&quot;Arial&quot; style=&quot;font-size: 18px;&quot;&gt;PROGRAMS &amp;amp; OUTPUTS&lt;/font&gt;&lt;/b&gt;" style="rounded=0;whiteSpace=wrap;html=1;fillColor=#dae8fc;strokeColor=#6c8ebf;" parent="oHDgF6Zf1U5vlmXcFzb0-1" vertex="1">
          <mxGeometry x="-1352" y="40" width="512" height="40" as="geometry" />
        </mxCell>
        <mxCell id="oHDgF6Zf1U5vlmXcFzb0-28" value="&lt;b&gt;&lt;font style=&quot;font-size: 18px;&quot;&gt;INPUT&lt;/font&gt;&lt;/b&gt;" style="rounded=0;whiteSpace=wrap;html=1;fillColor=#FFFFFF;strokeColor=#9673a6;" parent="oHDgF6Zf1U5vlmXcFzb0-1" vertex="1">
          <mxGeometry x="-1580" y="40" width="220" height="40" as="geometry" />
        </mxCell>
        <mxCell id="oHDgF6Zf1U5vlmXcFzb0-29" value="1. Short Courses:&#xa;1.1. Transformative Curriculum (O3)&#xa;1.2. Clinical Teaching (O1,O2,O3)&#xa;1.3. Digital Technology for Medical EducationÂ  &amp; Learning Management System (O1,O3)&#xa;1.4. Clinical Epidemiology (O1,O2)&#xa;1.5. Outcome &amp; Implementation Research (O2,O3)&#xa;1.6. Good Clinical Practices (O2)&#xa;1.7. Data Science (O2)&#xa;1.8. Health Technology Assessment (O2)&#xa;1.9. Grant Writing (O2,O3)&#xa;1.10. Academic Writing (O2)" style="whiteSpace=wrap;align=center;verticalAlign=middle;fontStyle=1;strokeWidth=1;fillColor=#CCE5FF;" parent="oHDgF6Zf1U5vlmXcFzb0-1" vertex="1">
          <mxGeometry x="-1352" y="100" width="270" height="200" as="geometry" />
        </mxCell>
        <mxCell id="oHDgF6Zf1U5vlmXcFzb0-30" value="2. Stakeholder Meetings (O1, O2, O3):&#xa;2.1. Consensus &amp; Common Goals BuildingÂ &#xa;2.2. Joint Planning&#xa;2.3. Benchmarking&#xa;2.4. Monitoring &amp; Evaluation&#xa;2.5. Annual Summit" style="whiteSpace=wrap;align=center;verticalAlign=middle;fontStyle=1;strokeWidth=1;fillColor=#CCE5FF;" parent="oHDgF6Zf1U5vlmXcFzb0-1" vertex="1">
          <mxGeometry x="-1352" y="308" width="270" height="100" as="geometry" />
        </mxCell>
        <mxCell id="oHDgF6Zf1U5vlmXcFzb0-31" value="3. Stakeholder Advocacy:&#xa;3.1. Policy ReviewÂ  (O1)&#xa;3.2. Policy Brief Development (O1)&#xa;3.3. Report &amp; Recommendation (O1)&#xa;3.4. AHS Website &amp; Dashboard Development (O2,O1,O3)" style="whiteSpace=wrap;align=center;verticalAlign=middle;fontStyle=1;strokeWidth=1;fillColor=#CCE5FF;" parent="oHDgF6Zf1U5vlmXcFzb0-1" vertex="1">
          <mxGeometry x="-1352" y="415.97" width="270" height="106.03" as="geometry" />
        </mxCell>
        <mxCell id="oHDgF6Zf1U5vlmXcFzb0-32" value="Number of Faculty Trained&#xa;Number of Translational Research&#xa;Number of Community Services Program&#xa;Number of Electronic Clinical RegistryÂ &#xa;Number of Clinical Pathway developed&#xa;Number of International and National Publication&#xa;" style="whiteSpace=wrap;align=center;verticalAlign=middle;fontStyle=1;strokeWidth=1;fillColor=#CCE5FF;" parent="oHDgF6Zf1U5vlmXcFzb0-1" vertex="1">
          <mxGeometry x="-1072" y="100" width="232" height="200" as="geometry" />
        </mxCell>
        <mxCell id="oHDgF6Zf1U5vlmXcFzb0-33" value="Number of Memorandum of Agreement with Private Clinics, Hospitals, District Health Office, Provincial Health Office, and Minister of Health Office" style="whiteSpace=wrap;align=center;verticalAlign=middle;fontStyle=1;strokeWidth=1;fillColor=#CCE5FF;" parent="oHDgF6Zf1U5vlmXcFzb0-1" vertex="1">
          <mxGeometry x="-1072" y="308.5" width="232" height="99.5" as="geometry" />
        </mxCell>
        <mxCell id="oHDgF6Zf1U5vlmXcFzb0-34" value="Number of Policy Brief Developed&#xa;Number of Website Visitors&#xa;Number of Dashboard Visitors" style="whiteSpace=wrap;align=center;verticalAlign=middle;fontStyle=1;strokeWidth=1;fillColor=#CCE5FF;" parent="oHDgF6Zf1U5vlmXcFzb0-1" vertex="1">
          <mxGeometry x="-1072" y="415.97" width="232" height="106.03" as="geometry" />
        </mxCell>
        <mxCell id="oHDgF6Zf1U5vlmXcFzb0-35" value="&lt;font style=&quot;font-size: 13px;&quot; face=&quot;Arial&quot;&gt;Internal Actors/Human Resources&lt;br&gt;- AHS Committee&lt;br&gt;- AHS Field Doctor&lt;br&gt;- Faculty Member (Academic Clubs)&lt;br&gt;- Medical Students&lt;/font&gt;" style="fontSize=24;align=left;html=1;fontStyle=1" parent="oHDgF6Zf1U5vlmXcFzb0-1" vertex="1">
          <mxGeometry x="-1580" y="100" width="220" height="140" as="geometry" />
        </mxCell>
        <mxCell id="oHDgF6Zf1U5vlmXcFzb0-36" value="&lt;font style=&quot;font-size: 13px;&quot; face=&quot;Arial&quot;&gt;Fund:&lt;br&gt;- Internal Budget&lt;br&gt;- Government Grant&lt;br&gt;- International Grant&lt;br&gt;- Community Social Responsibility&lt;/font&gt;" style="fontSize=24;align=left;html=1;fontStyle=1" parent="oHDgF6Zf1U5vlmXcFzb0-1" vertex="1">
          <mxGeometry x="-1580" y="260" width="220" height="160" as="geometry" />
        </mxCell>
        <mxCell id="oHDgF6Zf1U5vlmXcFzb0-37" value="Transformative Curriculum Development" style="whiteSpace=wrap;align=center;verticalAlign=middle;fontStyle=3;strokeWidth=1;fillColor=#FFFFCC" parent="oHDgF6Zf1U5vlmXcFzb0-1" vertex="1">
          <mxGeometry x="-641" y="403" width="290" height="40" as="geometry" />
        </mxCell>
        <mxCell id="oHDgF6Zf1U5vlmXcFzb0-38" style="edgeStyle=none;rounded=0;orthogonalLoop=1;jettySize=auto;html=1;exitX=0;exitY=0.5;exitDx=0;exitDy=0;entryX=0.474;entryY=1.066;entryDx=0;entryDy=0;entryPerimeter=0;" parent="oHDgF6Zf1U5vlmXcFzb0-1" source="oHDgF6Zf1U5vlmXcFzb0-14" target="oHDgF6Zf1U5vlmXcFzb0-24" edge="1">
          <mxGeometry relative="1" as="geometry">
            <Array as="points">
              <mxPoint x="-684" y="232" />
            </Array>
          </mxGeometry>
        </mxCell>
        <mxCell id="oHDgF6Zf1U5vlmXcFzb0-39" style="edgeStyle=none;rounded=0;orthogonalLoop=1;jettySize=auto;html=1;exitX=1;exitY=0.5;exitDx=0;exitDy=0;entryX=1;entryY=0.5;entryDx=0;entryDy=0;" parent="oHDgF6Zf1U5vlmXcFzb0-1" source="oHDgF6Zf1U5vlmXcFzb0-17" target="oHDgF6Zf1U5vlmXcFzb0-14" edge="1">
          <mxGeometry relative="1" as="geometry">
            <Array as="points">
              <mxPoint x="-345" y="353" />
              <mxPoint x="-345" y="232" />
            </Array>
          </mxGeometry>
        </mxCell>
        <mxCell id="oHDgF6Zf1U5vlmXcFzb0-40" style="edgeStyle=none;rounded=0;orthogonalLoop=1;jettySize=auto;html=1;entryX=-0.02;entryY=0.632;entryDx=0;entryDy=0;entryPerimeter=0;" parent="oHDgF6Zf1U5vlmXcFzb0-1" source="oHDgF6Zf1U5vlmXcFzb0-22" target="oHDgF6Zf1U5vlmXcFzb0-37" edge="1">
          <mxGeometry relative="1" as="geometry">
            <Array as="points">
              <mxPoint x="-720" y="428" />
            </Array>
          </mxGeometry>
        </mxCell>
        <mxCell id="oHDgF6Zf1U5vlmXcFzb0-41" style="edgeStyle=orthogonalEdgeStyle;rounded=0;orthogonalLoop=1;jettySize=auto;html=1;entryX=0;entryY=0.5;entryDx=0;entryDy=0;" parent="oHDgF6Zf1U5vlmXcFzb0-1" source="oHDgF6Zf1U5vlmXcFzb0-42" target="oHDgF6Zf1U5vlmXcFzb0-2" edge="1">
          <mxGeometry relative="1" as="geometry" />
        </mxCell>
        <mxCell id="oHDgF6Zf1U5vlmXcFzb0-42" value="COMMUNITY ENGAGEMENT" style="whiteSpace=wrap;align=center;verticalAlign=middle;fontStyle=1;strokeWidth=1;fillColor=#FFFFCC;fontSize=12;" parent="oHDgF6Zf1U5vlmXcFzb0-1" vertex="1">
          <mxGeometry x="-500" y="143" width="190" height="40" as="geometry" />
        </mxCell>
      </root>
    </mxGraphModel>
  </diagram>
</mxfile>
